<svg width="52" height="54" viewBox="0 0 52 54" fill="none" xmlns="http://www.w3.org/2000/svg">
<g clip-path="url(#clip0_367_21788)">
<mask id="mask0_367_21788" style="mask-type:luminance" maskUnits="userSpaceOnUse" x="0" y="1" width="52" height="52">
<path d="M51.5221 1.74487H0.487305V52.7925H51.5221V1.74487Z" fill="white"/>
</mask>
<g mask="url(#mask0_367_21788)">
<path fill-rule="evenodd" clip-rule="evenodd" d="M28.0814 49.7268C27.8641 51.6312 26.6627 52.7942 24.9628 52.7942C23.314 52.7942 22.0871 51.6056 21.8953 49.7779H10.7247C10.6352 50.7365 10.2773 51.5928 9.45936 52.1936C8.85864 52.6409 8.18125 52.8199 7.42716 52.7942C5.90622 52.7304 4.83261 51.6185 4.5003 49.7268H3.50337C1.84183 49.7012 0.512601 48.3976 0.49982 46.736C0.487039 45.3557 0.487039 43.9754 0.49982 42.5949C0.49982 41.2785 1.24112 40.2432 2.45533 39.7192C2.71094 39.6042 2.96657 39.3613 3.10716 39.1185C3.42715 38.5532 3.71154 37.9612 4.01233 37.335L4.01292 37.3337C4.07231 37.2101 4.13248 37.0849 4.19355 36.9585C3.44785 36.2701 3.50536 35.3656 3.56193 34.4759C3.56837 34.3744 3.57483 34.2729 3.58006 34.1722C3.6184 33.1881 4.52586 32.3956 5.56112 32.3829C6.67594 32.3744 7.79641 32.3772 8.92255 32.3801H8.92429H8.92602H8.92777H8.92952H8.93129C9.4933 32.3814 10.0576 32.3829 10.6224 32.3829C10.9822 31.2366 11.7529 31.2899 12.5506 31.3451C12.9714 31.3742 13.3998 31.4038 13.7793 31.2582V29.8011C13.7793 28.5486 14.035 28.293 15.2492 28.293H22.2021H22.9306V15.0134C22.8218 15.0134 22.7158 15.0149 22.6125 15.0163C22.4126 15.019 22.2211 15.0218 22.0359 15.0134C21.2563 14.9878 20.7834 14.4638 20.9623 13.7225C21.6141 11.0003 22.3043 8.29093 22.9943 5.58153C23.1477 4.98081 23.6208 4.80133 24.2215 4.80133C29.3212 4.81411 34.4464 4.81411 39.5715 4.81411H40.3V2.89694C40.3129 2.13008 40.6708 1.75943 41.4248 1.74665C42.7157 1.73387 44.0194 1.73387 45.3103 1.74665C46.0388 1.75943 46.3966 2.13008 46.4094 2.84582C46.4179 3.05883 46.4151 3.27186 46.4123 3.48488C46.4109 3.59138 46.4094 3.69789 46.4094 3.8044V4.80133H48.2372C49.0168 4.80133 49.2979 5.00582 49.4896 5.77268C49.9409 7.53325 50.3798 9.29993 50.8193 11.0685L50.8201 11.0716C51.0152 11.857 51.2104 12.6428 51.4069 13.4286C51.6753 14.515 51.3046 15.0006 50.1799 15.0006H49.5025V31.3348H50.3205C51.1257 31.3477 51.4963 31.6927 51.5091 32.4851C51.5219 33.7377 51.5219 34.9902 51.5091 36.2428C51.5091 37.0863 51.1512 37.4442 50.3077 37.4442H39.3415H34.1651V38.1599V45.1128C34.1651 46.3781 33.9224 46.621 32.6443 46.6338H32.1202C32.1202 46.8575 32.1217 47.0769 32.1231 47.2939V47.2952C32.126 47.7223 32.1287 48.1404 32.1202 48.5638C32.1075 49.3178 31.7496 49.6885 30.9827 49.7012C30.2273 49.7318 29.4639 49.7299 28.6791 49.7279C28.4813 49.7273 28.2821 49.7268 28.0814 49.7268ZM15.8243 44.5889H32.0818V30.3763H15.8243V44.5889ZM49.1829 12.9557C48.921 11.914 48.6653 10.8916 48.4129 9.88194L48.4099 9.86979C48.1584 8.86419 47.9102 7.87125 47.662 6.88464H24.7711C24.2727 8.91674 23.7742 10.9105 23.263 12.9554L49.1829 12.9557ZM25.0267 15.0518V28.2673H26.0108V25.3788C26.0236 24.5736 26.3687 24.2157 27.1739 24.2157C27.9924 24.2072 28.8165 24.2101 29.6388 24.2129C30.0492 24.2144 30.4591 24.2157 30.8677 24.2157C31.7879 24.2157 32.1202 24.5608 32.1202 25.4939V28.2673H33.1427V25.3917C33.1427 24.5865 33.5005 24.2286 34.3058 24.2157C35.5583 24.203 36.8109 24.203 38.0634 24.2157C38.8942 24.2157 39.2521 24.5865 39.2521 25.43V30.6574V31.3093H47.3808V15.0518H25.0267ZM10.648 47.8608V41.5725C10.0671 41.5725 9.48859 41.5717 8.91175 41.5709H8.90763H8.90352H8.89939H8.89527H8.89115H8.88702H8.88289H8.87878H8.87465H8.87052H8.86639C7.09795 41.5685 5.34515 41.5662 3.59284 41.5852C2.92822 41.5852 2.54479 42.0198 2.53201 42.6973C2.5302 42.8801 2.52813 43.0633 2.52606 43.2466C2.51352 44.3573 2.50091 45.4747 2.54479 46.5827C2.55757 46.9022 2.76207 47.2856 3.00491 47.4902C3.47781 47.8991 5.20326 47.7586 5.70172 47.3623C6.83923 46.4421 8.38575 46.4548 9.53604 47.3368C9.7271 47.4696 9.95594 47.5648 10.212 47.6712C10.3499 47.7285 10.4959 47.7892 10.648 47.8608ZM34.2035 35.3993H49.4386V33.431H34.2035V35.3993ZM12.7696 47.6562C12.81 47.6613 12.8483 47.6684 12.8846 47.675C12.9405 47.6853 12.9916 47.6946 13.038 47.6946H22.3426C22.496 47.6946 22.6877 47.6562 22.8156 47.5669C23.0931 47.3924 23.3607 47.208 23.6339 47.0201C23.8009 46.9051 23.9703 46.7885 24.1448 46.6722H15.0703C14.0606 46.6722 13.7538 46.3526 13.7538 45.3301V34.1083V33.4565H12.7569C12.7696 38.2111 12.7696 42.9145 12.7696 47.6562ZM35.2387 26.2735V31.2965H37.207V26.2735H35.2387ZM5.25438 39.4764H10.648V37.4826C10.2969 37.4826 9.94983 37.4818 9.60561 37.4809C8.58404 37.4785 7.5874 37.4762 6.58361 37.4953C6.43024 37.4953 6.20018 37.5976 6.13627 37.7253C5.89411 38.1592 5.67586 38.609 5.44376 39.0874C5.38195 39.2148 5.31887 39.3447 5.25438 39.4764ZM5.63781 34.4406V35.412H10.6608V34.4406H5.63781ZM28.0814 26.2864V28.2546H30.0497V26.2864H28.0814ZM25.9214 46.6849C26.9927 47.8794 28.4319 47.7688 29.896 47.6562L30.0625 47.6435V46.6849H25.9214ZM8.65414 49.7268C8.65414 49.2028 8.15568 48.7043 7.61888 48.7171C7.10764 48.7298 6.63473 49.1901 6.62196 49.7012C6.59639 50.2253 7.08207 50.7365 7.61888 50.7493C8.14291 50.7621 8.65414 50.2636 8.65414 49.7268ZM25.0012 50.7493C25.538 50.7365 26.0236 50.2253 25.9981 49.7012C25.9725 49.1644 25.4485 48.6915 24.9372 48.7171C24.4261 48.7555 23.9787 49.2284 23.9787 49.7396C23.9787 50.2636 24.4771 50.7621 25.0012 50.7493ZM42.3578 4.77576H44.3389V3.82996H42.3578V4.77576ZM51.5218 45.7008C51.5218 49.599 48.3264 52.7944 44.4282 52.7944C40.4023 52.7944 37.2325 49.6373 37.2325 45.5986C37.2325 41.7003 40.4278 38.5051 44.326 38.5051C48.3648 38.5051 51.5218 41.662 51.5218 45.7008ZM44.3899 50.7494C47.189 50.7366 49.4895 48.4104 49.4768 45.6114C49.464 42.8251 47.1123 40.5117 44.326 40.5373C41.5525 40.5756 39.2775 42.8634 39.2775 45.6369C39.2775 48.436 41.6164 50.7621 44.3899 50.7494ZM7.6422 12.0282C7.71514 12.0534 7.78132 12.0762 7.8361 12.099C7.50996 12.4089 7.17472 12.7096 6.83991 13.0099C6.12507 13.6512 5.4122 14.2906 4.79421 15.0131C2.32745 17.9144 1.39444 21.3525 1.52225 25.1229C1.54781 25.8898 2.09739 26.3627 2.76201 26.2348C3.33716 26.1326 3.59278 25.6725 3.56721 24.8545C3.43941 20.7774 4.89645 17.3903 8.00225 14.7319C8.3125 14.4625 8.65403 14.2296 9.02019 13.9799C9.22724 13.8387 9.44219 13.6921 9.6638 13.5305C9.6638 13.7616 9.66219 13.9718 9.66068 14.1687C9.65794 14.5266 9.65555 14.8405 9.6638 15.1537C9.67657 15.7928 10.0983 16.2401 10.6607 16.2529C11.2231 16.2529 11.6832 15.8055 11.696 15.1793C11.7215 14.0801 11.7471 12.9681 11.6832 11.869C11.6704 11.5622 11.4276 11.1021 11.172 11.0126C10.0472 10.5909 8.88414 10.2458 7.72107 9.93902C7.20983 9.81121 6.80083 10.1435 6.66023 10.642C6.50687 11.166 6.6858 11.6133 7.20983 11.8562C7.35772 11.9301 7.5109 11.983 7.6422 12.0282ZM16.1437 16.2272L16.0422 16.1921C15.7954 16.1065 15.5925 16.0362 15.3896 15.946C14.8656 15.7033 14.6611 15.2687 14.8145 14.7446C14.955 14.2078 15.3768 13.8755 15.9264 14.0161C17.0767 14.3101 18.2142 14.6679 19.3134 15.077C19.569 15.1792 19.8374 15.6266 19.8503 15.9205C19.9061 16.9046 19.8936 17.8888 19.881 18.8729C19.8792 19.0135 19.8774 19.1541 19.8758 19.2948C19.863 19.8826 19.4157 20.3172 18.8789 20.33C18.3164 20.3427 17.8692 19.8826 17.8563 19.2564C17.8479 18.9296 17.8506 18.5974 17.8534 18.2417C17.8549 18.0548 17.8563 17.8613 17.8563 17.6587C16.2715 18.5534 15.0445 19.7037 14.0476 21.0968C12.3989 23.423 11.6448 26.0303 11.747 28.8933L11.7485 28.9297C11.7615 29.2326 11.7784 29.6288 11.6064 29.8008C11.338 30.0564 10.8907 30.2993 10.5456 30.2736C9.97044 30.2353 9.7276 29.7368 9.70204 29.1617C9.62534 27.4873 9.81707 25.8514 10.2644 24.2537C11.1719 21.0202 12.9867 18.4384 15.7602 16.534C15.8249 16.491 15.8854 16.4398 15.9556 16.3806C16.0102 16.3344 16.0708 16.2833 16.1437 16.2272ZM29.8835 41.5722H23.9658C21.9847 41.5595 20.0164 41.5595 18.0355 41.5722C17.2685 41.5722 16.834 41.9429 16.8212 42.5692C16.8084 43.2337 17.243 43.6171 18.0482 43.6171H29.8962C30.6632 43.6171 31.0976 43.2465 31.1105 42.6202C31.1233 41.9556 30.6887 41.5722 29.8835 41.5722ZM22.4321 36.46H18.0355C17.243 36.46 16.8084 36.0766 16.8212 35.3993C16.834 34.7601 17.2685 34.4151 18.0355 34.4151H26.816C27.5957 34.4151 28.0174 34.773 28.0302 35.3993C28.0429 36.0638 27.6085 36.4472 26.8032 36.4472C25.359 36.46 23.902 36.46 22.4321 36.46ZM19.571 33.3955C19.8465 33.3941 20.1225 33.3926 20.3999 33.3926C20.671 33.3926 20.9435 33.3941 21.217 33.3955H21.2182C21.7692 33.3983 22.3246 33.4013 22.8794 33.3926C23.5312 33.3799 23.953 32.9965 23.9658 32.4085C23.9785 31.7951 23.5568 31.3605 22.8794 31.3605C21.2306 31.3477 19.569 31.3477 17.9203 31.3605C17.2685 31.3605 16.8467 31.7567 16.8339 32.3446C16.8084 32.9582 17.2302 33.3799 17.9203 33.3926C18.4733 33.4011 19.0217 33.3983 19.571 33.3955ZM32.1358 19.7692C32.1387 20.2079 32.1415 20.6491 32.133 21.0841C32.1202 21.7616 31.7496 22.145 31.0721 22.1578C29.7301 22.1706 28.401 22.1706 27.0589 22.1578C26.4199 22.145 26.0364 21.7616 26.0236 21.1225C26.0108 19.7677 26.0108 18.413 26.0236 17.0454C26.0364 16.4319 26.4199 16.0485 27.0205 16.0356C28.3753 16.0228 29.7301 16.0228 31.0978 16.0356C31.7623 16.0485 32.133 16.4447 32.1458 17.1349C32.1458 17.4687 32.1425 17.8027 32.1393 18.135C32.1362 18.4639 32.133 18.7917 32.133 19.1159C32.133 19.332 32.1344 19.5495 32.1358 19.7676V19.7692ZM30.0497 20.1129V18.119H28.0941V20.1129H30.0497ZM35.5308 22.1733H35.5321C35.7502 22.1719 35.9683 22.1706 36.1845 22.1706C36.849 22.1706 37.5011 22.1706 38.1656 22.1833C38.8941 22.1704 39.2648 21.7998 39.2775 21.0841C39.2903 19.7804 39.2903 18.4896 39.2775 17.1986C39.2775 16.4446 38.9069 16.0612 38.1528 16.0612C36.8491 16.0484 35.5583 16.0484 34.2674 16.0612C33.5388 16.0612 33.1554 16.4318 33.1554 17.1476C33.1426 18.4639 33.1426 19.7804 33.1554 21.0968C33.1554 21.7743 33.5388 22.1577 34.2162 22.1706C34.6512 22.1791 35.0919 22.1762 35.5308 22.1733ZM37.1942 18.1061V20.0999H35.2259V18.1061H37.1942ZM46.4249 19.8065C46.4277 20.2311 46.4305 20.6543 46.422 21.0714C46.4092 21.7871 46.0386 22.1578 45.3101 22.1578C44.0192 22.1706 42.7283 22.1706 41.4247 22.1578C40.6705 22.1578 40.3126 21.7743 40.2999 21.0075C40.2871 19.7293 40.2871 18.464 40.2999 17.1859C40.2999 16.4064 40.6577 16.0356 41.4119 16.0356C42.7027 16.0228 43.9936 16.0228 45.2973 16.0356C46.0514 16.0356 46.4092 16.4063 46.422 17.1732V18.1956V19.167C46.422 19.3802 46.4235 19.5938 46.4249 19.8065ZM42.3704 18.1061V20.0872H44.3387V18.1061H42.3704ZM44.0466 24.2128C43.8281 24.2143 43.6094 24.2156 43.393 24.2156C43.1769 24.2156 42.9594 24.2143 42.7409 24.2128H42.7396C42.2995 24.21 41.8556 24.2071 41.4119 24.2156C40.6834 24.2284 40.3126 24.5864 40.2999 25.302C40.2871 26.6185 40.2871 27.935 40.2999 29.2514C40.2999 29.9416 40.6705 30.325 41.348 30.3378C42.69 30.3505 44.0192 30.3505 45.3613 30.3378C46.0131 30.325 46.3965 29.9544 46.4092 29.3153C46.422 27.9478 46.422 26.593 46.4092 25.2382C46.3965 24.5991 46.0131 24.2284 45.3613 24.2156C44.9262 24.2071 44.4855 24.21 44.0466 24.2128ZM44.3259 28.2545H42.3449V26.2989H44.3259V28.2545ZM8.65411 44.6267C7.5805 44.6267 7.14595 44.3456 7.13316 43.6298C7.12038 42.9013 7.5805 42.5818 8.66689 42.5818C9.72772 42.5818 10.1751 42.863 10.1878 43.5787C10.2006 44.3073 9.74051 44.6267 8.65411 44.6267ZM46.3004 43.279C45.344 44.2481 44.3874 45.2174 43.2908 46.3269C43.2144 46.2303 43.1457 46.1402 43.0804 46.0548C42.9384 45.8687 42.8134 45.7049 42.6645 45.5472C42.4728 45.3299 42.2683 45.1126 42.0383 44.9209C41.5782 44.5246 41.0029 44.5246 40.6068 44.9081C40.185 45.3043 40.1722 45.9306 40.6068 46.3907C41.2458 47.0682 41.9104 47.72 42.5878 48.3718C43.0862 48.8447 43.6358 48.8575 44.1216 48.3718C45.4764 47.0425 46.8056 45.7134 48.1348 44.3586C48.5821 43.8985 48.5566 43.285 48.1475 42.8759C47.7258 42.467 47.1506 42.4797 46.665 42.9143C46.5792 42.9914 46.4993 43.0743 46.4212 43.1552C46.3829 43.195 46.345 43.2343 46.3071 43.2722L46.3004 43.279Z" fill="#413258"/>
</g>
</g>
<defs>
<clipPath id="clip0_367_21788">
<rect width="51.0476" height="52.182" fill="white" transform="translate(0.476074 0.908936)"/>
</clipPath>
</defs>
</svg>
